<svg width="18" height="18" viewBox="0 0 18 18" fill="none" xmlns="http://www.w3.org/2000/svg">
<g clip-path="url(#clip0_639_530)">
<path fill-rule="evenodd" clip-rule="evenodd" d="M11.9843 0.00012207H17.4532C17.598 0.000626559 17.7368 0.0584 17.8393 0.16084C17.9417 0.26328 17.9995 0.402073 18 0.546944V6.01644H16.9064V1.85881L10.8907 7.87512L10.125 7.10944L16.1407 1.09313H11.9843V0.00012207Z" fill="black"/>
<path fill-rule="evenodd" clip-rule="evenodd" d="M6.01568 0H0.546823C0.401952 0.000504488 0.263158 0.0582779 0.160718 0.160718C0.0582786 0.263158 0.000505447 0.401951 9.53674e-07 0.546822V6.01632H1.09364V1.85868L7.10932 7.875L7.875 7.10932L1.85932 1.09301H6.01568V0Z" fill="black"/>
<path fill-rule="evenodd" clip-rule="evenodd" d="M11.9843 18H17.4532C17.598 17.9995 17.7368 17.9417 17.8393 17.8393C17.9417 17.7368 17.9995 17.598 18 17.4532V11.9837H16.9064V16.1413L10.8907 10.125L10.125 10.8907L16.1407 16.907H11.9843V18Z" fill="black"/>
<path fill-rule="evenodd" clip-rule="evenodd" d="M6.01568 18H0.546823C0.401952 17.9995 0.263158 17.9417 0.160718 17.8393C0.0582786 17.7368 0.000505447 17.598 9.53674e-07 17.4532V11.9837H1.09364V16.1413L7.10932 10.125L7.875 10.8907L1.85932 16.907H6.01568V18Z" fill="black"/>
</g>
<defs>
<clipPath id="clip0_639_530">
<rect width="18" height="18" fill="white"/>
</clipPath>
</defs>
</svg>
